<svg xmlns="http://www.w3.org/2000/svg" xmlns:xlink="http://www.w3.org/1999/xlink" viewBox="0 0 767 767"><style>.R{stroke-width:.6}.S{stroke-linecap:square}.T{stroke-width:.273}.U{fill:#7b3f00}.V{stroke-width:.611}.W{fill:#fcd116}</style><defs><path d="M1.501 9 .197 11.03l.1.015c-.99 6.447.12 10.63.933 13.883.406 1.627.745 3.026.687 4.367a5.658 5.658 0 0 1-.71 2.538C5.856 26.68-1.456 24.12 6.002 12Z" id="A" class="S T U"/><path d="M0 11c-2 13 4.5 17 0 22" fill="none" id="B"/><path d="M0 0h-6l6 33L6 0H0v33" id="C"/><path d="M0 0h6-6v33L6 0" stroke="none" id="D" class="U"/></defs><g transform="translate(568.161747 -1232.34688) scale(10.85675)"><g stroke="#7b3f00" stroke-miterlimit="20"><g class="W"><path d="m-19.106 157.888 3.066 4.578c-12.596 9.116-4.906 14.506-13.833 17.424 5.552-5.418-.734-6.254 3.944-17.547" class="S V"/><g transform="matrix(.38982 .9411 -.9411 .38982 -17.008929 148.83334)"><g class="S"><path d="M1.5 9 6 12c-8 13 1 15-6 21 3-7-3.012-5.581-3.012-17.581" class="R"/><use xlink:href="#A" class="T"/></g><use xlink:href="#B" class="R"/></g><path d="m-17.009 148.833-4.322-4.322-19.448 28.091 28.091-19.448-4.322-4.322-23.77 23.77" class="V"/><g transform="rotate(90 -82.9211345 65.9122055) scale(1.01865)"><g transform="rotate(22.5)"><g class="S"><path d="M1.5 9 6 12c-8 13 1 15-6 21 3-7-3.025-5.447-3.025-17.447" class="R"/><use xlink:href="#A" class="T"/></g><use xlink:href="#B" class="R"/></g><g class="R"><use xlink:href="#C"/><use xlink:href="#D"/></g></g><g transform="matrix(-.7203 .7203 -.7203 -.7203 -17.008929 148.83334)"><g transform="rotate(22.5)"><g class="S"><path d="M1.5 9 6 12c-8 13 1 15-6 21 3-7-3.016-6.242-3.016-18.242" class="R"/><use xlink:href="#A" class="T"/></g><use xlink:href="#B" class="R"/></g><g class="R"><use xlink:href="#C"/><use xlink:href="#D"/></g></g><g transform="rotate(180 -8.5044645 74.41667) scale(1.01865)"><g transform="rotate(22.5)"><g class="S"><path d="M1.5 9 6 12c-8 13 1 15-6 21 3-7-3.008-5.461-3.008-17.461" class="R"/><use xlink:href="#A" class="T"/></g><use xlink:href="#B" class="R"/></g><g class="R"><use xlink:href="#C"/><use xlink:href="#D"/></g><g transform="rotate(45)"><g transform="rotate(22.5)"><g class="S"><path d="M1.5 9 6 12c-8 13 1 15-6 21 3-7-2.951-5.793-2.951-17.793" class="R"/><use xlink:href="#A" class="T"/></g><use xlink:href="#B" class="R"/></g><g class="R"><use xlink:href="#C"/><use xlink:href="#D"/></g></g></g><g transform="rotate(-90 65.9122055 82.9211345) scale(1.01865)"><g transform="rotate(22.5)"><g class="S"><path d="M1.5 9 6 12c-8 13 1 15-6 21 3-7-3.017-5.588-3.017-17.588" class="R"/><use xlink:href="#A" class="T"/></g><use xlink:href="#B" class="R"/></g><g class="R"><use xlink:href="#C"/><use xlink:href="#D"/></g></g><g transform="matrix(.7203 -.7203 .7203 .7203 -17.008929 148.83334)"><g transform="rotate(22.5)"><g class="S"><path d="M1.5 9 6 12c-8 13 1 15-6 21 3-7-2.982-5.66-2.982-17.66" class="R"/><use xlink:href="#A" class="T"/></g><use xlink:href="#B" class="R"/></g><g class="R"><use xlink:href="#C"/><use xlink:href="#D"/></g></g></g><path d="m-19.105 157.888-2.019 1.402.088.053c-3.445 5.681-4.031 10.051-4.534 13.429-.252 1.689-.478 3.138-1.056 4.378a5.763 5.763 0 0 1-1.658 2.112c6.384-3.037.501-8.297 12.244-16.796z" stroke-width=".278" class="U"/><g class="V"><path d="M-21.297 159.186c-6.95 11.455-2.392 17.753-8.576 20.704" fill="none"/><path d="M-17.009 148.833h-6.112l6.112 33.615 6.112-33.615h-6.112v33.615" class="W"/></g></g><g class="U"><path d="M-17.009 148.833h6.112-6.112v33.615l6.112-33.615"/><path d="m-17.009 148.833 4.322 4.322-4.322-4.322-23.77 23.77 28.091-19.448"/></g><circle r="11.205" cx="-17.009" cy="148.833" stroke="#7b3f00" class="V W"/><g class="U"><path d="M-8.758 144.351c-.713.815-1.121-.611-3.667-.611s-2.954 1.528-3.362 1.222 2.139-2.139 2.954-2.241 3.158.713 4.075 1.63m-2.954.917c.713.611.102 1.935-.611 1.935s-2.037-1.222-1.426-2.037"/><path d="M-15.074 146.185c.102-1.222 1.121-1.426 2.75-1.426s2.343 1.222 2.954 1.528c-.713 0-1.324-1.019-2.954-1.019s-1.63 0-2.75 1.019m.306.204c.407-.611.917.611 2.037.611s1.732-.306 2.445-.815-1.019 1.222-2.139 1.222-2.648-.611-2.343-1.019m-7.946-1.324c-.509.204-1.324 1.222 0 1.935-1.019-.713-.204-1.732 0-1.935z"/><path d="M-11.304 145.166c.204.204 1.019 1.222 0 1.935 1.324-.713.509-1.732 0-1.935zm-7.334 4.38c-.917.204-.611 1.528-1.426 1.63s-1.222 1.019-1.12.917c.509-.407 1.63-.713 2.445-.713s1.019.51 1.732.51.917-.51 1.732-.51 1.935.306 2.445.713c.102.102-.305-.815-1.12-.917s-.509-1.426-1.426-1.63c0 .407.305.306.407.917 0 .509-.917.509-1.12 0 .204.815-.407.815-.917.815s-1.12 0-.917-.815c-.204.509-1.12.509-1.12 0 .102-.611.407-.509.407-.917zm-3.158 3.463c-.815.611-1.018.917-1.12 1.63.244-.428.364-.603.55-.855l-.142-.062.169.024.543-.737z"/><path d="m-22.34 153.747-.013.018a1.81 1.81 0 0 0 .404.044l-.391-.061zm.391.062c.635.112 1.134.258 1.591.406.57-.042 1.357-.187 3.349-.187s2.778.144 3.349.187c.457-.148.956-.294 1.591-.406-1.122.004-2.619-.799-3.31-.799-.815 0-1.019.204-1.63.204s-.815-.204-1.63-.204c-.691 0-2.187.803-3.31.799zm9.879 0c.142-.001.277-.014.404-.044l-.013-.018-.391.061z"/><path d="m-11.678 153.747.169-.024-.142.062c.186.251.306.427.55.855-.102-.713-.305-1.019-1.12-1.63l.543.737z"/><path d="M-11.651 153.785c-1.068.403-1.443.472-2.01.43-.966.312-1.762.628-3.349.628s-2.383-.316-3.349-.628c-.567.042-.941-.028-2.005-.437 3.195 1.384 2.845 1.88 5.353 1.88s2.158-.496 5.358-1.873zm-10.711-.007c-.044-.025-.097-.036-.147-.055l.147.055zm10.706 0 .147-.055a1.29 1.29 0 0 1-.157.042z"/><g transform="matrix(-.10186 0 0 .10186 -17.008929 148.83334)"><path d="M81-44c-7 8-11-6-36-6S16-35 12-38s21-21 29-22 31 7 40 16m-29 9c7 6 1 19-6 19S26-28 32-36"/><path d="M19-26c1-12 11-14 27-14s23 12 29 15c-7 0-13-10-29-10s-16 0-27 10m3 2c4-6 9 6 20 6s17-3 24-8-10 12-21 12-26-6-23-10"/></g><path d="M-17.009 156.575c-.509 0-1.834.306 0 .306s.509-.306 0-.306"/></g></g></svg>